<mxfile host="app.diagrams.net" modified="2021-12-02T20:03:00.667Z" agent="5.0 (Windows NT 10.0; Win64; x64) AppleWebKit/537.36 (KHTML, like Gecko) Chrome/96.0.4664.45 Safari/537.36" etag="UL6M735rbCnVvE3eku6g" version="15.8.8" type="github" pages="4">
  <diagram id="C5RBs43oDa-KdzZeNtuy" name="메인페이지">
    <mxGraphModel dx="1422" dy="794" grid="1" gridSize="10" guides="1" tooltips="1" connect="1" arrows="1" fold="1" page="1" pageScale="1" pageWidth="827" pageHeight="1169" math="0" shadow="0">
      <root>
        <mxCell id="WIyWlLk6GJQsqaUBKTNV-0" />
        <mxCell id="WIyWlLk6GJQsqaUBKTNV-1" parent="WIyWlLk6GJQsqaUBKTNV-0" />
        <mxCell id="Go8Dk2ga-ugQ9zEmZqDj-33" style="edgeStyle=orthogonalEdgeStyle;rounded=0;orthogonalLoop=1;jettySize=auto;html=1;entryX=0.537;entryY=-0.05;entryDx=0;entryDy=0;entryPerimeter=0;" edge="1" parent="WIyWlLk6GJQsqaUBKTNV-1" source="juDBDlR05PbPrtpR-2eS-1" target="Go8Dk2ga-ugQ9zEmZqDj-25">
          <mxGeometry relative="1" as="geometry" />
        </mxCell>
        <mxCell id="Go8Dk2ga-ugQ9zEmZqDj-34" style="edgeStyle=orthogonalEdgeStyle;rounded=0;orthogonalLoop=1;jettySize=auto;html=1;entryX=0.55;entryY=-0.033;entryDx=0;entryDy=0;entryPerimeter=0;" edge="1" parent="WIyWlLk6GJQsqaUBKTNV-1" source="juDBDlR05PbPrtpR-2eS-1" target="Go8Dk2ga-ugQ9zEmZqDj-26">
          <mxGeometry relative="1" as="geometry" />
        </mxCell>
        <mxCell id="juDBDlR05PbPrtpR-2eS-1" value="&lt;h1&gt;BACK&lt;/h1&gt;&lt;p&gt;Lorem ipsum dolor sit amet, consectetur adipisicing elit, sed do eiusmod tempor incididunt ut labore et dolore magna aliqua.&lt;/p&gt;" style="text;html=1;strokeColor=none;fillColor=none;spacing=5;spacingTop=-20;whiteSpace=wrap;overflow=hidden;rounded=0;" vertex="1" parent="WIyWlLk6GJQsqaUBKTNV-1">
          <mxGeometry x="1680" y="150" width="190" height="120" as="geometry" />
        </mxCell>
        <mxCell id="Go8Dk2ga-ugQ9zEmZqDj-7" value="" style="group" vertex="1" connectable="0" parent="WIyWlLk6GJQsqaUBKTNV-1">
          <mxGeometry x="1380" y="650" width="190" height="250" as="geometry" />
        </mxCell>
        <mxCell id="Iai3zhB1diZm_DVqYomz-0" value="&lt;h1&gt;DB&lt;/h1&gt;&lt;p&gt;&lt;br&gt;&lt;/p&gt;" style="text;html=1;strokeColor=none;fillColor=none;spacing=5;spacingTop=-20;whiteSpace=wrap;overflow=hidden;rounded=0;" vertex="1" parent="Go8Dk2ga-ugQ9zEmZqDj-7">
          <mxGeometry width="190" height="120" as="geometry" />
        </mxCell>
        <mxCell id="Go8Dk2ga-ugQ9zEmZqDj-2" value="whole" style="swimlane;fontStyle=0;childLayout=stackLayout;horizontal=1;startSize=30;horizontalStack=0;resizeParent=1;resizeParentMax=0;resizeLast=0;collapsible=1;marginBottom=0;" vertex="1" parent="Go8Dk2ga-ugQ9zEmZqDj-7">
          <mxGeometry y="130" width="140" height="120" as="geometry" />
        </mxCell>
        <mxCell id="Go8Dk2ga-ugQ9zEmZqDj-3" value="Item 1" style="text;strokeColor=none;fillColor=default;align=left;verticalAlign=middle;spacingLeft=4;spacingRight=4;overflow=hidden;points=[[0,0.5],[1,0.5]];portConstraint=eastwest;rotatable=0;" vertex="1" parent="Go8Dk2ga-ugQ9zEmZqDj-2">
          <mxGeometry y="30" width="140" height="30" as="geometry" />
        </mxCell>
        <mxCell id="Go8Dk2ga-ugQ9zEmZqDj-4" value="Item 2" style="text;strokeColor=none;fillColor=default;align=left;verticalAlign=middle;spacingLeft=4;spacingRight=4;overflow=hidden;points=[[0,0.5],[1,0.5]];portConstraint=eastwest;rotatable=0;" vertex="1" parent="Go8Dk2ga-ugQ9zEmZqDj-2">
          <mxGeometry y="60" width="140" height="30" as="geometry" />
        </mxCell>
        <mxCell id="Go8Dk2ga-ugQ9zEmZqDj-5" value="Item 3" style="text;strokeColor=none;fillColor=default;align=left;verticalAlign=middle;spacingLeft=4;spacingRight=4;overflow=hidden;points=[[0,0.5],[1,0.5]];portConstraint=eastwest;rotatable=0;" vertex="1" parent="Go8Dk2ga-ugQ9zEmZqDj-2">
          <mxGeometry y="90" width="140" height="30" as="geometry" />
        </mxCell>
        <mxCell id="Go8Dk2ga-ugQ9zEmZqDj-11" value="" style="edgeStyle=orthogonalEdgeStyle;rounded=0;orthogonalLoop=1;jettySize=auto;html=1;exitX=0.25;exitY=1;exitDx=0;exitDy=0;" edge="1" parent="WIyWlLk6GJQsqaUBKTNV-1" source="juDBDlR05PbPrtpR-2eS-0" target="Go8Dk2ga-ugQ9zEmZqDj-10">
          <mxGeometry relative="1" as="geometry" />
        </mxCell>
        <mxCell id="Go8Dk2ga-ugQ9zEmZqDj-13" value="" style="edgeStyle=orthogonalEdgeStyle;rounded=0;orthogonalLoop=1;jettySize=auto;html=1;" edge="1" parent="WIyWlLk6GJQsqaUBKTNV-1" source="juDBDlR05PbPrtpR-2eS-0" target="Go8Dk2ga-ugQ9zEmZqDj-12">
          <mxGeometry relative="1" as="geometry" />
        </mxCell>
        <mxCell id="Go8Dk2ga-ugQ9zEmZqDj-15" value="" style="edgeStyle=orthogonalEdgeStyle;rounded=0;orthogonalLoop=1;jettySize=auto;html=1;exitX=0.75;exitY=1;exitDx=0;exitDy=0;entryX=0;entryY=0.5;entryDx=0;entryDy=0;" edge="1" parent="WIyWlLk6GJQsqaUBKTNV-1" source="juDBDlR05PbPrtpR-2eS-0" target="Go8Dk2ga-ugQ9zEmZqDj-14">
          <mxGeometry relative="1" as="geometry" />
        </mxCell>
        <mxCell id="juDBDlR05PbPrtpR-2eS-0" value="&lt;h1&gt;FRONT&lt;/h1&gt;" style="text;html=1;strokeColor=none;fillColor=none;spacing=5;spacingTop=-20;whiteSpace=wrap;overflow=hidden;rounded=0;" vertex="1" parent="WIyWlLk6GJQsqaUBKTNV-1">
          <mxGeometry x="1010" y="140" width="90" height="30" as="geometry" />
        </mxCell>
        <mxCell id="Go8Dk2ga-ugQ9zEmZqDj-17" value="" style="edgeStyle=orthogonalEdgeStyle;rounded=0;orthogonalLoop=1;jettySize=auto;html=1;" edge="1" parent="WIyWlLk6GJQsqaUBKTNV-1" target="Go8Dk2ga-ugQ9zEmZqDj-18">
          <mxGeometry relative="1" as="geometry">
            <mxPoint x="640" y="390" as="sourcePoint" />
            <mxPoint x="547" y="380" as="targetPoint" />
          </mxGeometry>
        </mxCell>
        <mxCell id="Go8Dk2ga-ugQ9zEmZqDj-20" value="" style="edgeStyle=orthogonalEdgeStyle;rounded=0;orthogonalLoop=1;jettySize=auto;html=1;" edge="1" parent="WIyWlLk6GJQsqaUBKTNV-1" source="Go8Dk2ga-ugQ9zEmZqDj-10" target="Go8Dk2ga-ugQ9zEmZqDj-19">
          <mxGeometry relative="1" as="geometry" />
        </mxCell>
        <mxCell id="Go8Dk2ga-ugQ9zEmZqDj-10" value="공통 헤더" style="whiteSpace=wrap;html=1;fillColor=default;" vertex="1" parent="WIyWlLk6GJQsqaUBKTNV-1">
          <mxGeometry x="580" y="255" width="120" height="60" as="geometry" />
        </mxCell>
        <mxCell id="Go8Dk2ga-ugQ9zEmZqDj-22" value="" style="edgeStyle=orthogonalEdgeStyle;rounded=0;orthogonalLoop=1;jettySize=auto;html=1;" edge="1" parent="WIyWlLk6GJQsqaUBKTNV-1" source="Go8Dk2ga-ugQ9zEmZqDj-12" target="Go8Dk2ga-ugQ9zEmZqDj-21">
          <mxGeometry relative="1" as="geometry">
            <Array as="points">
              <mxPoint x="980" y="390" />
              <mxPoint x="980" y="390" />
            </Array>
          </mxGeometry>
        </mxCell>
        <mxCell id="Go8Dk2ga-ugQ9zEmZqDj-12" value="메인 콘텐츠" style="whiteSpace=wrap;html=1;fillColor=default;" vertex="1" parent="WIyWlLk6GJQsqaUBKTNV-1">
          <mxGeometry x="930" y="300" width="120" height="60" as="geometry" />
        </mxCell>
        <mxCell id="Go8Dk2ga-ugQ9zEmZqDj-14" value="공통푸터" style="whiteSpace=wrap;html=1;fillColor=default;" vertex="1" parent="WIyWlLk6GJQsqaUBKTNV-1">
          <mxGeometry x="1200" y="180" width="120" height="60" as="geometry" />
        </mxCell>
        <mxCell id="Go8Dk2ga-ugQ9zEmZqDj-18" value="&lt;h1&gt;session&lt;/h1&gt;&lt;div&gt;String now_page = 현재 페이지 이름&lt;/div&gt;&lt;div&gt;Boolean login = 로그인 되있는지 아닌지&lt;/div&gt;" style="text;html=1;strokeColor=none;fillColor=default;spacing=5;spacingTop=-20;whiteSpace=wrap;overflow=hidden;rounded=0;" vertex="1" parent="WIyWlLk6GJQsqaUBKTNV-1">
          <mxGeometry x="310" y="330" width="230" height="120" as="geometry" />
        </mxCell>
        <mxCell id="Go8Dk2ga-ugQ9zEmZqDj-19" value="" style="whiteSpace=wrap;html=1;" vertex="1" parent="WIyWlLk6GJQsqaUBKTNV-1">
          <mxGeometry x="580" y="520" width="120" height="60" as="geometry" />
        </mxCell>
        <mxCell id="Go8Dk2ga-ugQ9zEmZqDj-24" value="" style="edgeStyle=orthogonalEdgeStyle;rounded=0;orthogonalLoop=1;jettySize=auto;html=1;" edge="1" parent="WIyWlLk6GJQsqaUBKTNV-1" target="Go8Dk2ga-ugQ9zEmZqDj-23">
          <mxGeometry relative="1" as="geometry">
            <mxPoint x="980" y="440" as="sourcePoint" />
          </mxGeometry>
        </mxCell>
        <mxCell id="Go8Dk2ga-ugQ9zEmZqDj-21" value="" style="whiteSpace=wrap;html=1;" vertex="1" parent="WIyWlLk6GJQsqaUBKTNV-1">
          <mxGeometry x="920" y="520" width="120" height="60" as="geometry" />
        </mxCell>
        <mxCell id="Go8Dk2ga-ugQ9zEmZqDj-23" value="Session&lt;br&gt;ArrayList&amp;lt;wholeWinRateVO&amp;gt; wholeWinRate" style="whiteSpace=wrap;html=1;" vertex="1" parent="WIyWlLk6GJQsqaUBKTNV-1">
          <mxGeometry x="1121" y="410" width="269" height="60" as="geometry" />
        </mxCell>
        <mxCell id="Go8Dk2ga-ugQ9zEmZqDj-36" value="" style="edgeStyle=orthogonalEdgeStyle;rounded=0;orthogonalLoop=1;jettySize=auto;html=1;" edge="1" parent="WIyWlLk6GJQsqaUBKTNV-1" source="Go8Dk2ga-ugQ9zEmZqDj-25" target="Go8Dk2ga-ugQ9zEmZqDj-35">
          <mxGeometry relative="1" as="geometry" />
        </mxCell>
        <mxCell id="Go8Dk2ga-ugQ9zEmZqDj-38" value="" style="edgeStyle=orthogonalEdgeStyle;rounded=0;orthogonalLoop=1;jettySize=auto;html=1;" edge="1" parent="WIyWlLk6GJQsqaUBKTNV-1" source="Go8Dk2ga-ugQ9zEmZqDj-25" target="Go8Dk2ga-ugQ9zEmZqDj-37">
          <mxGeometry relative="1" as="geometry" />
        </mxCell>
        <mxCell id="Go8Dk2ga-ugQ9zEmZqDj-25" value="&lt;span&gt;ArrayList&amp;lt;wholeWinRateVO&amp;gt; wholeWinRate 생성기&lt;/span&gt;" style="rounded=0;whiteSpace=wrap;html=1;fillColor=default;" vertex="1" parent="WIyWlLk6GJQsqaUBKTNV-1">
          <mxGeometry x="1510" y="340" width="300" height="60" as="geometry" />
        </mxCell>
        <mxCell id="Go8Dk2ga-ugQ9zEmZqDj-28" value="" style="edgeStyle=orthogonalEdgeStyle;rounded=0;orthogonalLoop=1;jettySize=auto;html=1;" edge="1" parent="WIyWlLk6GJQsqaUBKTNV-1" source="Go8Dk2ga-ugQ9zEmZqDj-26" target="Go8Dk2ga-ugQ9zEmZqDj-27">
          <mxGeometry relative="1" as="geometry" />
        </mxCell>
        <mxCell id="Go8Dk2ga-ugQ9zEmZqDj-26" value="&lt;span&gt;로그인 기능&lt;/span&gt;" style="rounded=0;whiteSpace=wrap;html=1;fillColor=default;" vertex="1" parent="WIyWlLk6GJQsqaUBKTNV-1">
          <mxGeometry x="1850" y="340" width="140" height="60" as="geometry" />
        </mxCell>
        <mxCell id="Go8Dk2ga-ugQ9zEmZqDj-30" value="" style="edgeStyle=orthogonalEdgeStyle;rounded=0;orthogonalLoop=1;jettySize=auto;html=1;" edge="1" parent="WIyWlLk6GJQsqaUBKTNV-1" source="Go8Dk2ga-ugQ9zEmZqDj-27" target="Go8Dk2ga-ugQ9zEmZqDj-29">
          <mxGeometry relative="1" as="geometry" />
        </mxCell>
        <mxCell id="Go8Dk2ga-ugQ9zEmZqDj-27" value="db에 있는 아이디인지" style="whiteSpace=wrap;html=1;rounded=0;" vertex="1" parent="WIyWlLk6GJQsqaUBKTNV-1">
          <mxGeometry x="1860" y="480" width="120" height="60" as="geometry" />
        </mxCell>
        <mxCell id="Go8Dk2ga-ugQ9zEmZqDj-29" value="비밀번호 일치하는지" style="whiteSpace=wrap;html=1;rounded=0;" vertex="1" parent="WIyWlLk6GJQsqaUBKTNV-1">
          <mxGeometry x="1860" y="620" width="120" height="60" as="geometry" />
        </mxCell>
        <mxCell id="Go8Dk2ga-ugQ9zEmZqDj-35" value="&#xa;&#xa;&lt;span style=&quot;color: rgb(0, 0, 0); font-family: helvetica; font-size: 12px; font-style: normal; font-weight: 400; letter-spacing: normal; text-align: center; text-indent: 0px; text-transform: none; word-spacing: 0px; background-color: rgb(248, 249, 250); display: inline; float: none;&quot;&gt;&amp;lt;wholeWinRateVO&amp;gt;&lt;/span&gt;&#xa;&#xa;" style="whiteSpace=wrap;html=1;rounded=0;" vertex="1" parent="WIyWlLk6GJQsqaUBKTNV-1">
          <mxGeometry x="1400" y="500" width="120" height="60" as="geometry" />
        </mxCell>
        <mxCell id="Go8Dk2ga-ugQ9zEmZqDj-37" value="조합별 총승률 계산" style="whiteSpace=wrap;html=1;rounded=0;" vertex="1" parent="WIyWlLk6GJQsqaUBKTNV-1">
          <mxGeometry x="1600" y="500" width="120" height="60" as="geometry" />
        </mxCell>
      </root>
    </mxGraphModel>
  </diagram>
  <diagram id="UYFXQQRq7ypbyOYC4V2F" name="library">
    <mxGraphModel dx="1422" dy="794" grid="1" gridSize="10" guides="1" tooltips="1" connect="1" arrows="1" fold="1" page="1" pageScale="1" pageWidth="827" pageHeight="1169" math="0" shadow="0">
      <root>
        <mxCell id="m0dcmaJG7GQt757oqea4-0" />
        <mxCell id="m0dcmaJG7GQt757oqea4-1" parent="m0dcmaJG7GQt757oqea4-0" />
        <mxCell id="m0dcmaJG7GQt757oqea4-2" value="&lt;h1&gt;LolBotDAO&lt;/h1&gt;&lt;div&gt;&lt;br&gt;&lt;/div&gt;&lt;div&gt;&lt;span style=&quot;text-align: center&quot;&gt;#wholeWinRate(num,pan,winrate)&lt;/span&gt;&lt;br&gt;&lt;/div&gt;&lt;div&gt;&lt;span style=&quot;text-align: center&quot;&gt;-&lt;/span&gt;&lt;/div&gt;" style="text;html=1;strokeColor=none;fillColor=default;spacing=5;spacingTop=-20;whiteSpace=wrap;overflow=hidden;rounded=0;" parent="m0dcmaJG7GQt757oqea4-1" vertex="1">
          <mxGeometry x="50" y="40" width="440" height="360" as="geometry" />
        </mxCell>
      </root>
    </mxGraphModel>
  </diagram>
  <diagram id="1ovnKv77eU58ezn6nts-" name="학습계획">
    <mxGraphModel dx="1422" dy="794" grid="1" gridSize="10" guides="1" tooltips="1" connect="1" arrows="1" fold="1" page="1" pageScale="1" pageWidth="827" pageHeight="1169" math="0" shadow="0">
      <root>
        <mxCell id="-Ay7j5cqlT5rpfS_3y4O-0" />
        <mxCell id="-Ay7j5cqlT5rpfS_3y4O-1" parent="-Ay7j5cqlT5rpfS_3y4O-0" />
        <mxCell id="-Ay7j5cqlT5rpfS_3y4O-2" value="" style="edgeStyle=orthogonalEdgeStyle;rounded=0;orthogonalLoop=1;jettySize=auto;html=1;" parent="-Ay7j5cqlT5rpfS_3y4O-1" source="-Ay7j5cqlT5rpfS_3y4O-4" target="-Ay7j5cqlT5rpfS_3y4O-6" edge="1">
          <mxGeometry relative="1" as="geometry" />
        </mxCell>
        <mxCell id="-Ay7j5cqlT5rpfS_3y4O-3" value="" style="edgeStyle=orthogonalEdgeStyle;rounded=0;orthogonalLoop=1;jettySize=auto;html=1;" parent="-Ay7j5cqlT5rpfS_3y4O-1" source="-Ay7j5cqlT5rpfS_3y4O-4" target="-Ay7j5cqlT5rpfS_3y4O-7" edge="1">
          <mxGeometry relative="1" as="geometry" />
        </mxCell>
        <mxCell id="-Ay7j5cqlT5rpfS_3y4O-4" value="스프링" style="rounded=0;whiteSpace=wrap;html=1;" parent="-Ay7j5cqlT5rpfS_3y4O-1" vertex="1">
          <mxGeometry x="1570" y="170" width="120" height="60" as="geometry" />
        </mxCell>
        <mxCell id="qhhPkx3YLYWhLmvEUUN_-1" value="" style="edgeStyle=orthogonalEdgeStyle;rounded=0;orthogonalLoop=1;jettySize=auto;html=1;" edge="1" parent="-Ay7j5cqlT5rpfS_3y4O-1" source="-Ay7j5cqlT5rpfS_3y4O-5" target="qhhPkx3YLYWhLmvEUUN_-0">
          <mxGeometry relative="1" as="geometry" />
        </mxCell>
        <mxCell id="-Ay7j5cqlT5rpfS_3y4O-5" value="스프링부트" style="rounded=0;whiteSpace=wrap;html=1;" parent="-Ay7j5cqlT5rpfS_3y4O-1" vertex="1">
          <mxGeometry x="1870" y="170" width="120" height="60" as="geometry" />
        </mxCell>
        <mxCell id="ou7F8AiTpl2U-ayl7Uk4-1" value="" style="edgeStyle=orthogonalEdgeStyle;rounded=0;orthogonalLoop=1;jettySize=auto;html=1;" edge="1" parent="-Ay7j5cqlT5rpfS_3y4O-1" source="-Ay7j5cqlT5rpfS_3y4O-6" target="ou7F8AiTpl2U-ayl7Uk4-0">
          <mxGeometry relative="1" as="geometry" />
        </mxCell>
        <mxCell id="-Ay7j5cqlT5rpfS_3y4O-6" value="인프런" style="whiteSpace=wrap;html=1;rounded=0;" parent="-Ay7j5cqlT5rpfS_3y4O-1" vertex="1">
          <mxGeometry x="1470" y="320" width="120" height="60" as="geometry" />
        </mxCell>
        <mxCell id="-Ay7j5cqlT5rpfS_3y4O-7" value="패캠" style="whiteSpace=wrap;html=1;rounded=0;" parent="-Ay7j5cqlT5rpfS_3y4O-1" vertex="1">
          <mxGeometry x="1640" y="320" width="120" height="60" as="geometry" />
        </mxCell>
        <mxCell id="kb1CqcI8skcnW0WihZfF-1" value="" style="edgeStyle=orthogonalEdgeStyle;rounded=0;orthogonalLoop=1;jettySize=auto;html=1;" edge="1" parent="-Ay7j5cqlT5rpfS_3y4O-1" source="ou7F8AiTpl2U-ayl7Uk4-0" target="kb1CqcI8skcnW0WihZfF-0">
          <mxGeometry relative="1" as="geometry" />
        </mxCell>
        <mxCell id="ou7F8AiTpl2U-ayl7Uk4-0" value="스프링입문&lt;br&gt;28강 5.5시간" style="whiteSpace=wrap;html=1;rounded=0;" vertex="1" parent="-Ay7j5cqlT5rpfS_3y4O-1">
          <mxGeometry x="1390" y="460" width="120" height="60" as="geometry" />
        </mxCell>
        <mxCell id="kb1CqcI8skcnW0WihZfF-3" value="" style="edgeStyle=orthogonalEdgeStyle;rounded=0;orthogonalLoop=1;jettySize=auto;html=1;" edge="1" parent="-Ay7j5cqlT5rpfS_3y4O-1" source="kb1CqcI8skcnW0WihZfF-0" target="kb1CqcI8skcnW0WihZfF-2">
          <mxGeometry relative="1" as="geometry" />
        </mxCell>
        <mxCell id="kb1CqcI8skcnW0WihZfF-0" value="스프링 핵심 원리&lt;br&gt;65강 12시간" style="whiteSpace=wrap;html=1;rounded=0;" vertex="1" parent="-Ay7j5cqlT5rpfS_3y4O-1">
          <mxGeometry x="1390" y="600" width="120" height="60" as="geometry" />
        </mxCell>
        <mxCell id="kb1CqcI8skcnW0WihZfF-5" value="" style="edgeStyle=orthogonalEdgeStyle;rounded=0;orthogonalLoop=1;jettySize=auto;html=1;" edge="1" parent="-Ay7j5cqlT5rpfS_3y4O-1" source="kb1CqcI8skcnW0WihZfF-2" target="kb1CqcI8skcnW0WihZfF-4">
          <mxGeometry relative="1" as="geometry" />
        </mxCell>
        <mxCell id="kb1CqcI8skcnW0WihZfF-2" value="http웹 기본 지식&lt;br&gt;41강 6시간" style="whiteSpace=wrap;html=1;rounded=0;" vertex="1" parent="-Ay7j5cqlT5rpfS_3y4O-1">
          <mxGeometry x="1390" y="740" width="120" height="60" as="geometry" />
        </mxCell>
        <mxCell id="kb1CqcI8skcnW0WihZfF-9" value="" style="edgeStyle=orthogonalEdgeStyle;rounded=0;orthogonalLoop=1;jettySize=auto;html=1;" edge="1" parent="-Ay7j5cqlT5rpfS_3y4O-1" source="kb1CqcI8skcnW0WihZfF-4" target="kb1CqcI8skcnW0WihZfF-8">
          <mxGeometry relative="1" as="geometry" />
        </mxCell>
        <mxCell id="kb1CqcI8skcnW0WihZfF-4" value="spring MVC part1&lt;br&gt;72강 15시간" style="whiteSpace=wrap;html=1;rounded=0;" vertex="1" parent="-Ay7j5cqlT5rpfS_3y4O-1">
          <mxGeometry x="1390" y="880" width="120" height="60" as="geometry" />
        </mxCell>
        <mxCell id="kb1CqcI8skcnW0WihZfF-11" value="" style="edgeStyle=orthogonalEdgeStyle;rounded=0;orthogonalLoop=1;jettySize=auto;html=1;" edge="1" parent="-Ay7j5cqlT5rpfS_3y4O-1" source="kb1CqcI8skcnW0WihZfF-8" target="kb1CqcI8skcnW0WihZfF-10">
          <mxGeometry relative="1" as="geometry" />
        </mxCell>
        <mxCell id="kb1CqcI8skcnW0WihZfF-8" value="spring MVC part2&lt;br&gt;129강 21시간" style="whiteSpace=wrap;html=1;rounded=0;" vertex="1" parent="-Ay7j5cqlT5rpfS_3y4O-1">
          <mxGeometry x="1390" y="1020" width="120" height="60" as="geometry" />
        </mxCell>
        <mxCell id="kb1CqcI8skcnW0WihZfF-10" value="스프링 고급&lt;br&gt;125강 17시간" style="whiteSpace=wrap;html=1;rounded=0;" vertex="1" parent="-Ay7j5cqlT5rpfS_3y4O-1">
          <mxGeometry x="1390" y="1160" width="120" height="60" as="geometry" />
        </mxCell>
        <mxCell id="qhhPkx3YLYWhLmvEUUN_-3" value="" style="edgeStyle=orthogonalEdgeStyle;rounded=0;orthogonalLoop=1;jettySize=auto;html=1;" edge="1" parent="-Ay7j5cqlT5rpfS_3y4O-1" source="qhhPkx3YLYWhLmvEUUN_-0" target="qhhPkx3YLYWhLmvEUUN_-2">
          <mxGeometry relative="1" as="geometry" />
        </mxCell>
        <mxCell id="qhhPkx3YLYWhLmvEUUN_-0" value="JPA&lt;br&gt;54강 16시간" style="whiteSpace=wrap;html=1;rounded=0;" vertex="1" parent="-Ay7j5cqlT5rpfS_3y4O-1">
          <mxGeometry x="1870" y="310" width="120" height="60" as="geometry" />
        </mxCell>
        <mxCell id="qhhPkx3YLYWhLmvEUUN_-5" value="" style="edgeStyle=orthogonalEdgeStyle;rounded=0;orthogonalLoop=1;jettySize=auto;html=1;" edge="1" parent="-Ay7j5cqlT5rpfS_3y4O-1" source="qhhPkx3YLYWhLmvEUUN_-2" target="qhhPkx3YLYWhLmvEUUN_-4">
          <mxGeometry relative="1" as="geometry" />
        </mxCell>
        <mxCell id="qhhPkx3YLYWhLmvEUUN_-2" value="JPA2&lt;br&gt;36강 7시간" style="whiteSpace=wrap;html=1;rounded=0;" vertex="1" parent="-Ay7j5cqlT5rpfS_3y4O-1">
          <mxGeometry x="1870" y="450" width="120" height="60" as="geometry" />
        </mxCell>
        <mxCell id="qhhPkx3YLYWhLmvEUUN_-7" value="" style="edgeStyle=orthogonalEdgeStyle;rounded=0;orthogonalLoop=1;jettySize=auto;html=1;" edge="1" parent="-Ay7j5cqlT5rpfS_3y4O-1" source="qhhPkx3YLYWhLmvEUUN_-4" target="qhhPkx3YLYWhLmvEUUN_-6">
          <mxGeometry relative="1" as="geometry" />
        </mxCell>
        <mxCell id="qhhPkx3YLYWhLmvEUUN_-4" value="JPA3&lt;br&gt;24강 6시간" style="whiteSpace=wrap;html=1;rounded=0;" vertex="1" parent="-Ay7j5cqlT5rpfS_3y4O-1">
          <mxGeometry x="1870" y="590" width="120" height="60" as="geometry" />
        </mxCell>
        <mxCell id="qhhPkx3YLYWhLmvEUUN_-9" value="" style="edgeStyle=orthogonalEdgeStyle;rounded=0;orthogonalLoop=1;jettySize=auto;html=1;" edge="1" parent="-Ay7j5cqlT5rpfS_3y4O-1" source="qhhPkx3YLYWhLmvEUUN_-6" target="qhhPkx3YLYWhLmvEUUN_-8">
          <mxGeometry relative="1" as="geometry" />
        </mxCell>
        <mxCell id="qhhPkx3YLYWhLmvEUUN_-6" value="JPA&lt;br&gt;32강 7시간" style="whiteSpace=wrap;html=1;rounded=0;" vertex="1" parent="-Ay7j5cqlT5rpfS_3y4O-1">
          <mxGeometry x="1870" y="730" width="120" height="60" as="geometry" />
        </mxCell>
        <mxCell id="qhhPkx3YLYWhLmvEUUN_-8" value="QUERY DS&lt;br&gt;41강 6시간" style="whiteSpace=wrap;html=1;rounded=0;" vertex="1" parent="-Ay7j5cqlT5rpfS_3y4O-1">
          <mxGeometry x="1870" y="870" width="120" height="60" as="geometry" />
        </mxCell>
        <mxCell id="qhhPkx3YLYWhLmvEUUN_-12" value="" style="edgeStyle=orthogonalEdgeStyle;rounded=0;orthogonalLoop=1;jettySize=auto;html=1;" edge="1" parent="-Ay7j5cqlT5rpfS_3y4O-1" source="qhhPkx3YLYWhLmvEUUN_-10" target="qhhPkx3YLYWhLmvEUUN_-11">
          <mxGeometry relative="1" as="geometry" />
        </mxCell>
        <mxCell id="qhhPkx3YLYWhLmvEUUN_-14" value="" style="edgeStyle=orthogonalEdgeStyle;rounded=0;orthogonalLoop=1;jettySize=auto;html=1;" edge="1" parent="-Ay7j5cqlT5rpfS_3y4O-1" source="qhhPkx3YLYWhLmvEUUN_-10" target="qhhPkx3YLYWhLmvEUUN_-13">
          <mxGeometry relative="1" as="geometry" />
        </mxCell>
        <mxCell id="qhhPkx3YLYWhLmvEUUN_-10" value="개인프로젝트" style="rounded=0;whiteSpace=wrap;html=1;" vertex="1" parent="-Ay7j5cqlT5rpfS_3y4O-1">
          <mxGeometry x="1000" y="170" width="120" height="60" as="geometry" />
        </mxCell>
        <mxCell id="qhhPkx3YLYWhLmvEUUN_-11" value="페이지 구성" style="whiteSpace=wrap;html=1;rounded=0;" vertex="1" parent="-Ay7j5cqlT5rpfS_3y4O-1">
          <mxGeometry x="650" y="480" width="120" height="60" as="geometry" />
        </mxCell>
        <mxCell id="qhhPkx3YLYWhLmvEUUN_-16" value="" style="edgeStyle=orthogonalEdgeStyle;rounded=0;orthogonalLoop=1;jettySize=auto;html=1;" edge="1" parent="-Ay7j5cqlT5rpfS_3y4O-1" source="qhhPkx3YLYWhLmvEUUN_-13" target="qhhPkx3YLYWhLmvEUUN_-15">
          <mxGeometry relative="1" as="geometry" />
        </mxCell>
        <mxCell id="qhhPkx3YLYWhLmvEUUN_-13" value="백엔드 기능" style="whiteSpace=wrap;html=1;rounded=0;" vertex="1" parent="-Ay7j5cqlT5rpfS_3y4O-1">
          <mxGeometry x="1100" y="350" width="120" height="60" as="geometry" />
        </mxCell>
        <mxCell id="qhhPkx3YLYWhLmvEUUN_-15" value="" style="whiteSpace=wrap;html=1;rounded=0;" vertex="1" parent="-Ay7j5cqlT5rpfS_3y4O-1">
          <mxGeometry x="880" y="490" width="120" height="60" as="geometry" />
        </mxCell>
        <mxCell id="MVOwXxy9cA6bkc5pj53j-0" value="&lt;h1&gt;460강&lt;/h1&gt;&lt;h1&gt;76시간&lt;/h1&gt;&lt;div&gt;&lt;br&gt;&lt;/div&gt;" style="text;html=1;strokeColor=none;fillColor=none;spacing=5;spacingTop=-20;whiteSpace=wrap;overflow=hidden;rounded=0;" vertex="1" parent="-Ay7j5cqlT5rpfS_3y4O-1">
          <mxGeometry x="1380" y="280" width="190" height="120" as="geometry" />
        </mxCell>
        <mxCell id="MVOwXxy9cA6bkc5pj53j-2" value="&lt;h1&gt;187강&lt;/h1&gt;&lt;h1&gt;42시간&lt;/h1&gt;&lt;div&gt;&lt;br&gt;&lt;/div&gt;" style="text;html=1;strokeColor=none;fillColor=none;spacing=5;spacingTop=-20;whiteSpace=wrap;overflow=hidden;rounded=0;" vertex="1" parent="-Ay7j5cqlT5rpfS_3y4O-1">
          <mxGeometry x="2020" y="220" width="190" height="120" as="geometry" />
        </mxCell>
        <mxCell id="MVOwXxy9cA6bkc5pj53j-3" value="&lt;h1&gt;22강&lt;/h1&gt;" style="text;html=1;strokeColor=none;fillColor=none;spacing=5;spacingTop=-20;whiteSpace=wrap;overflow=hidden;rounded=0;" vertex="1" parent="-Ay7j5cqlT5rpfS_3y4O-1">
          <mxGeometry x="1670" y="370" width="190" height="120" as="geometry" />
        </mxCell>
        <mxCell id="MVOwXxy9cA6bkc5pj53j-4" value="오라클" style="rounded=0;whiteSpace=wrap;html=1;" vertex="1" parent="-Ay7j5cqlT5rpfS_3y4O-1">
          <mxGeometry x="2280" y="170" width="120" height="60" as="geometry" />
        </mxCell>
      </root>
    </mxGraphModel>
  </diagram>
  <diagram id="WWKBqUFRkZdPQ1QMfU0Q" name="전체db">
    <mxGraphModel dx="1422" dy="794" grid="1" gridSize="10" guides="1" tooltips="1" connect="1" arrows="1" fold="1" page="1" pageScale="1" pageWidth="827" pageHeight="1169" math="0" shadow="0">
      <root>
        <mxCell id="8qqPZl29MkzZxOtjzXIS-0" />
        <mxCell id="8qqPZl29MkzZxOtjzXIS-1" parent="8qqPZl29MkzZxOtjzXIS-0" />
      </root>
    </mxGraphModel>
  </diagram>
</mxfile>
